<svg xmlns="http://www.w3.org/2000/svg" xmlns:xlink="http://www.w3.org/1999/xlink" width="1863.709" height="918.995" xmlns:v="https://vecta.io/nano"><g fill="none" stroke="#f2a549" stroke-width="14" stroke-miterlimit="10"><path d="M602.845 160.11c24.08 40.96 23.66 91.74-.57 132.61a311.01 311.01 0 0 1-42.29 55.85c-56.46 59.32-136.18 96.29-224.53 96.29-106.13 0-199.8-53.35-255.67-134.68-7.21-10.5-13.8-21.47-19.69-32.84a300.65 300.65 0 0 1-7.01-14.45c-.05-.12-.11-.24-.16-.36-10.58-23.39-10.42-50.27.2-73.64C101.865 81.61 209.945 7 335.465 7c113.94 0 213.52 61.5 267.38 153.11z"/><path d="M318.655 915.54l-32.55-132.02c-37.4-110.27-137.11-83.42-137.11-83.42-100.68 21.1-90.13-48.9-90.13-48.9 10.54-46.02-9.11-60.41-9.11-60.41-29.24-22.06-11.03-39.32-11.03-39.32 11.51-10.54-.96-22.05-.96-22.05-22.06-18.22-1.92-37.4-1.92-37.4 17.26-18.22-1.91-33.56-1.91-33.56-21.58-9.35-25.35-20.32-25.89-25.22-.15-1.39-.3-2.8-.66-4.16-1.55-5.79 3.1-17.23 10.66-30.75 15.78-28.25 37.58-52.69 63.62-71.91a647.62 647.62 0 0 1 23.05-16.24c101.66-68.33 315.55-169.88 480.2 38.39 9.62 12.16 19.07 25.37 28.31 39.72 0 0 127 196.81-37.07 371.18-52.19 55.47-133.84 108.65-258.39 152.52"/><path d="M148.985 700.1s223.86-41.74 330.35-20.4c97.81 19.61 240.9 205.98-161.59 232.31"/></g><g fill="#ffffff"><use xlink:href="#B"/><use xlink:href="#C"/><path d="M989.355 184.98c3 .6 3.4 1.2 3 4l-1 6.6c-.4 2.4-1.6 3.8-4.6 3.4-6.8-.8-18.2-1.6-29.4-1.6-9.2 0-21 2.6-21 14.2 0 5 4 8.8 10.8 13.2l17.8 11.8c13.8 9.2 17.8 16.2 17.8 26.8 0 23.6-21 31.8-43 31.8-8.4 0-22.4-.8-31.2-3-2-.4-3.8-1.8-3.4-4l1.2-7c.6-2.6 1.6-3.4 5-3 9.4 1.2 23.8 2.2 31 2.2 11.8 0 22.6-4.2 22.6-17 0-4.6-2.4-8.2-11.6-14.2l-18-11.8c-11-7.2-16.8-15.2-16.8-26 0-22.2 21.4-29 41.4-29 15.4 0 20.8.8 29.4 2.6z"/><use xlink:href="#D"/><use xlink:href="#E"/><use xlink:href="#D" x="124.39"/><path d="M1297.555 183.78c2.8 0 3.4 2.2 3 4l-17.8 102c-.4 2.2-2.4 4-4.6 4h-9.4c-2.4 0-3.4-2-3-4l.6-3.6c-12 6.2-21.4 9-33.2 9-17.2 0-29.2-10.6-29.2-31.6 0-3.8.4-7.8 1.2-12.2l11.2-63.6c.6-3 2.6-4 4.8-4h9.6c2.4 0 3.6 1.4 3.2 4l-11.6 65.8c-.8 4.4-1.2 8.2-1.2 11.4 0 11.2 5.4 14.8 18.6 14.8 8.4 0 18.4-2.8 28.4-7.4l14.8-84.6c.4-2.2 1.4-4 4.8-4z"/><use xlink:href="#D" x="310.79"/><use xlink:href="#B" y="240"/><use xlink:href="#C" y="240"/><use xlink:href="#D" x="-94.6" y="240"/><path d="M1074.965 471.58l-1.6 8.4c-.6 2.6-1.4 4.4-4.4 4.4h-67.4l-.4 2.4c-.8 4.6-1.2 8.6-1.2 12.2 0 15 9.4 21.4 24.8 21.4 11.6 0 25.2-1.4 34.6-2.8 3-.4 4.2.2 3.8 2.8l-1.2 6.8c-.4 2.8-1.4 4-4.8 4.6-11.8 2.2-21.6 3.4-35 3.4-19.8 0-39.4-10-39.4-37 0-3.8.4-8 1.2-12.4l2.6-14c6-31.8 24.6-49.4 53-49.4 24.8 0 36.6 16.2 36.6 37.2 0 3.8-.4 7.8-1.2 12zm-38-33.8c-17.4 0-29 13.8-32.6 32.2l-.2 1h53l.2-1c.8-4 1.2-7.8 1.2-11 0-14.2-7.4-21.2-21.6-21.2zm69 92c-.4 2.2-2.6 4-4.8 4h-9.8c-2.2 0-3.4-2-3-4l17.8-102c.4-2.2 2.4-4 4.6-4h9.4c2.4 0 3.4 2 3 4l-.8 4.6c10.8-8.4 20.4-10 29.6-10h.4c3.4 0 4 1.4 3.6 3.6l-1.4 8.4c-.4 2.2-2 3.4-4.8 3.4h-.6c-11.4 0-18.8 2-28.6 8.2z"/><use xlink:href="#C" x="359.59" y="240"/><use xlink:href="#F"/><use xlink:href="#D" x="369.59" y="240"/><use xlink:href="#E" x="369.59" y="240"/><path d="M1588.755 471.18l-2.6 15.2c-5.2 30.4-21.6 48.8-53.2 48.8-24 0-36.8-15.6-36.8-37.8 0-3.6.4-7.2 1-11l2.6-15.2c5.6-32.4 23.2-48.8 53-48.8 24.6 0 37 15.6 37 37.6 0 3.6-.4 7.4-1 11.2zm-38.6-33.4c-17.4 0-29.4 13-32.8 33.4l-2.6 15.2c-.8 4.4-1.2 8.2-1.2 11.8 0 14.2 6.4 21.6 22 21.6 17.6 0 29.6-13.8 33-33.4l2.6-15.2c.8-4.2 1-8 1-11.4 0-14.4-6.4-22-22-22z"/><use xlink:href="#C" x="804.99" y="240"/><use xlink:href="#F" x="445.4"/><path d="M1860.755 383.38c2.2 0 3.4 1 2.8 3.8l-25 142.6c-.4 2.2-1.2 4-4.4 4h-10.4c-2.2 0-3.2-2-2.8-4l25-142.6c.4-2.2 1.4-3.8 4.4-3.8zm-1006.19 238.2c2.2 0 4 .8 3.4 4l-24.6 139.2c-.6 3-1.6 4.2-6.4 5.4-13 3.2-28.2 5.2-41 5.2-27.8 0-40-17.2-40-39.2 0-3.6.4-7.2 1-11l2.6-15.4c6-36.2 24.6-50.2 56.8-50.2 4.8 0 11.6.4 18.8 1.4l6.4-35.4c.4-2.2 1.4-4 4.6-4zm-52 59.6c-17.2 0-23.4 9.2-26.6 28.6l-2.6 15.4c-.8 4.8-1.2 8.8-1.2 12.4 0 11 4.6 16.2 17.6 16.2 7.2 0 15.4-.6 19.4-1.4l12.2-69.8c-5.4-.8-14-1.4-18.8-1.4z"/><use xlink:href="#G"/><use xlink:href="#H"/><path d="M1214.155 711.38l21.2 58.4c1 2.6-.8 4-2.8 4h-23c-2.2 0-3-1.6-3.8-4l-19-53.4h-4c-5.2 0-11-.4-17.8-.8l-9.4 54.2c-.4 2.2-1 4-4.6 4h-20c-2.4 0-3.6-1.2-3.2-4l24.2-137.6c.8-4 3.2-5.4 7.4-6 10.6-1.6 25-2.6 39.6-2.6 30 0 50.6 11.6 50.6 38.8 0 21.2-12.2 41.8-35.4 49zm-19.4-64c-4.2 0-14.2.4-17.8.8l-8 45c3.2.2 14.4.6 17.8.6 20.6 0 34.8-7.6 34.8-30.2 0-12.2-9.2-16.2-26.8-16.2zm159.4 64.6l-1.6 9.6c-.6 3.2-2 5-4.8 5h-65.2c-.4 2.8-1 5.4-1 8.2 0 10.8 5.6 18 20.4 18 14.6 0 28.4-1.4 37-2.2h.8c1.6 0 3 .4 3 2.2v.8l-2.4 13.2c-.6 3.2-1.2 4.6-5 5.2-13.4 2.4-22.2 3.4-40.2 3.4-17.8 0-39.4-10-39.4-40.2 0-3.6.2-7.8 1-12l2.2-12.4c6.6-37.4 26.4-51.2 57-51.2 26.6 0 39.2 17.6 39.2 41 0 3.6-.4 7.6-1 11.4zm-1-63.6h-15.4c-2.4 0-3-.8-4.2-2.6l-11.4-16.2-17 16.2c-2 1.8-2.8 2.6-5.2 2.6h-17.8c-1 0-1.6-.4-1.6-1.2 0-.6.4-1.4 1.2-2.2l22.6-24c2.2-2.2 3-3 5.6-3h26c2.6 0 3.4.8 4.8 3l14 24c.4.6.4 1.2.4 1.6 0 1-.59 1.8-2 1.8zm-41.19 34c-16 0-23.4 10.8-26 25.4h42.4c.4-2.6.8-5 .8-7.6 0-11.6-6.2-17.8-17.2-17.8zm158.39-21.4c3.6 0 3.8 2.6 2.8 4.6l-41.2 91c-6.6 14.8-18 18.8-28.2 18.8s-20.2-4-21.6-18.8l-9.2-91c-.4-3.4 1.2-4.6 3.8-4.6h19.2c1.8 0 3.2 1.4 3.4 4l4.4 83.8c.2 3.8 1.4 5 3 5s3-1.2 4.6-5l34-83.8c1.4-3.6 3.6-4 5.4-4z"/><use xlink:href="#G" x="610.4"/><use xlink:href="#H" x="610.4"/></g><defs ><path id="B" d="M787.765 145.18c2.6 0 3.4 1.2 3 3.8l-24.8 140.8c-.4 2.8-1.6 4-4.4 4h-11c-2.6 0-3.2-2-2.8-4l24.8-140.8c.4-2 1.2-3.8 4.2-3.8z"/><path id="C" d="M892.965 223.98l-11.6 65.8c-.4 2.2-2.6 4-4.8 4h-9.6c-2.4 0-3.6-2-3.2-4l11.6-65.8c.6-3.8 1-7.8 1-11 0-9.6-4-15.2-18.6-15.2-7.6 0-15.4 1.6-28.2 7.6l-14.8 84.4c-.4 2-2.6 4-4.8 4h-9.8c-2.4 0-3.4-2.2-3-4l17.8-102c.4-2.2 1.6-4 5.2-4h8.4c3.2 0 4.2 1.2 3.8 4l-.6 4.2c9.6-5.4 18.6-9.6 32.2-9.6 21.4 0 30 13.6 30 30.8 0 3.4-.4 7.4-1 10.8z"/><path id="D" d="M1069.565 183.78c2.4 0 3.6 1.2 3.2 4l-1.2 6.8c-.6 3.6-2.4 4-4.6 4h-21.6l-12.4 70.2c-.4 2.4-.6 4.2-.6 5.8 0 5.8 2.8 6.4 9.2 6.4h12.2c2.2 0 3.2.6 2.8 2.8l-1.2 7c-.4 1.8-1.4 3-4.2 3.4-4 .6-8.8 1-12.6 1-13.6 0-24-5.2-24-19 0-2.6.2-4.6.8-7.8l12.4-69.8-19-2.2c-2-.2-3.6-1.6-3.2-3.6l1-5.4c.6-2.8 2.2-3.6 4.4-3.6h19.4l3.2-19.6c.4-2 2.2-3.6 4.4-4l10.6-1.6c2.8-.4 3.4 1.4 3 3.4l-3.6 21.8z"/><path id="E" d="M1108.565 183.78c2.4 0 3.8.8 3.2 4l-17.8 102c-.4 2.2-1.4 4-4.8 4h-9.6c-2.8 0-3.6-2-3.2-4l17.8-102c.6-3.6 2.6-4 4.8-4zm7.8-41.6c2.8 0 3.6 1.2 3.2 4l-2.8 16c-.6 2.8-1.6 4-4.8 4h-10.2c-3 0-3.6-2-3.2-4l2.8-16c.4-2.2 1.8-4 4.8-4z"/><path id="F" d="M1360.355 426.98c3.6.8 3.8 2 3.4 4.6l-17.2 98.2c-.4 2.2-1.4 4-4.6 4h-8c-3 0-3.4-1.6-3-4.4l1-6.2c-11.8 8.4-18.8 12-32.2 12-17 0-31.2-10.8-31.2-35.4 0-3.8.4-7.8 1.2-12l3.6-19.8c6.2-34.6 28-45.6 52-45.6 12 0 24.8 2 35 4.6zm-35 10.2c-20.6 0-31 11.4-34.8 32.6l-3.6 20.6c-.6 3-.8 6.2-.8 9.2 0 15.4 7.8 20.8 17.4 20.8 9.4 0 18-4.2 29-11.6l12.2-69.6c-5.4-1-11-2-19.4-2z"/><path id="G" d="M960.765 711.98l-1.6 9.6c-.6 3.2-2 5-4.8 5h-65.2c-.4 2.8-1 5.4-1 8.2 0 10.8 5.6 18 20.4 18 14.6 0 28.4-1.4 37-2.2 2.6-.2 4.2.4 3.8 3l-2.4 13.2c-.6 3.2-1.2 4.6-5 5.2-13.4 2.4-22.2 3.4-40.2 3.4-17.8 0-39.4-10-39.4-40.2 0-3.6.2-7.8 1-12l2.2-12.4c6.6-37.4 26.4-51.2 57-51.2 26.6 0 39.2 17.6 39.2 41 0 3.6-.4 7.6-1 11.4zm-42.2-29.6c-16 0-23.4 10.8-26 25.4h42.4c.4-2.6.8-5 .8-7.6 0-11.6-6.2-17.8-17.2-17.8z"/><path id="H" d="M1060.555 663.78c2.2.6 3.4 1.2 2.8 4.6l-2 11.4c-.4 2.8-1.4 4.2-4.6 3.8-5.4-.8-20.2-2.4-31.6-2.4-7.4 0-15.4.8-15.4 8.2 0 3.4.8 5.6 6 9.2l23.4 16c12 8.2 14.8 16.4 14.8 25.2 0 25-20.4 35.6-44.2 35.6-6.6 0-23.8-.6-36-4-2.6-.8-3.4-2-3-4.6l2.2-12c.4-2.2 1.4-3.6 4.8-3.2 9.4 1.2 26 2.2 32 2.2 9.8 0 17.2-1.8 17.2-11.2 0-3.2-1.8-6.2-6.6-9.6l-21-14.4c-11.4-7.8-16.4-15.2-16.4-28.6 0-24 23-30.4 42.2-30.4 12 0 24.4 1.4 35.4 4.2z"/></defs></svg>