<svg xmlns="http://www.w3.org/2000/svg" width="1680.46" height="498.755" xmlns:v="https://vecta.io/nano"><path d="M752.551 392.166l-46.3-15.75-34.23-11.66c-130.78 8.2-127.29 7.99-152.69 6.71-32.57-1.65-40-3.3-60.95-9.23-87.44-24.76-153.58-89.71-152.99-183.02.64-101.06 83.75-181.16 184.79-179.18 45.68.89 90.43 15.32 124.1 41.11l4.06 3.07c21.75 16.24 41.75 34.74 59.22 55.51 39.43 46.9 75.57 115.28 57.06 202.02l8.41 42.45z" fill="#c171ab"/><path d="M610.851 232.566c-80.89-96.07-165.02-138.36-275.7-151.52-132.19-15.72-192.7 19.01-240 57.47-65.6 53.33-102.94 150.37-93.78 229.28 7.71 66.47 29.87 121.16 66.72 121.16 17.21 0 32.9-11.83 44.73-31.26 14.03-23.03 32.3-43.88 56.01-56.73 52.93-28.69 98.68-8.8 140.06 5.61 40.37 13.33 200.11 99.41 279.65 91.69 44.4-4.31 74.17-38.82 82-82.73 6.18-34.69 11.17-98.81-59.69-182.97z" fill="#89c9e7"/><path d="M673.101 365.116c-3.16-34.72-17.73-79.68-62.25-132.55-80.89-96.07-165.02-138.36-275.7-151.52-18.6 28.1-29.53 61.77-29.76 98.16-.59 93.32 65.56 158.27 152.99 183.02 20.95 5.93 28.37 7.58 60.95 9.23 25.39 1.29 21.9 1.5 152.69-6.71z" fill="#69335e"/><path d="M849.331 206.256c9.2 0 16.3 6.9 16.3 15.9s-7.1 15.9-16.3 15.9-16.3-6.9-16.3-15.9 7.1-15.9 16.3-15.9zm-7.4 43.5h14.7c4.1 0 6.4 2.3 6.4 6.4v90.81c0 4.1-2.3 6.4-6.4 6.4h-14.7c-4.1 0-6.4-2.3-6.4-6.4v-90.81c0-4.1 2.3-6.4 6.4-6.4zm91.5-2.4c14.5 0 26.2 5.6 34.5 14.8v-6c0-4.1 2.3-6.4 6.4-6.4h14.4c4.1 0 6.4 2.3 6.4 6.4v90.81c0 4.1-2.3 6.4-6.4 6.4h-14.4c-4.1 0-6.4-2.3-6.4-6.4v-6c-8.3 9.2-20 14.8-34.5 14.8-28.9 0-50-23.9-50-54.2s21.1-54.21 50-54.21zm5.9 84.11c16 0 28.6-13 28.6-29.9 0-16.8-12.6-29.9-28.6-29.9-15.9 0-28.3 13.1-28.3 29.9 0 16.9 12.4 29.9 28.3 29.9zm160.95-134.93c47.8 0 84.37 34.8 84.37 79.74s-36.57 79.74-84.37 79.74-84.37-34.8-84.37-79.74 36.57-79.74 84.37-79.74zm0 118.94c21.37 0 37.23-16.74 37.23-39.21s-15.86-39.21-37.23-39.21-37.23 16.74-37.23 39.21 15.86 39.21 37.23 39.21zm140.32 37.89h-26.43c-6.28 0-9.69-3.41-9.69-9.69v-94.72c0-6.28 3.41-9.69 9.69-9.69h26.43c6.28 0 9.69 3.41 9.69 9.69v.66c7.16-8.81 17.07-13 29.63-13 21.7 0 39.1 17.29 39.1 42.95v64.1c0 6.28-3.41 9.69-9.69 9.69h-26.43c-6.28 0-9.69-3.41-9.69-9.69v-53.53c0-8.81-3.75-13.88-11.89-13.88-6.06 0-11.01 3.63-11.01 16.08v51.32c-.02 6.3-3.43 9.71-9.71 9.71zm122.91-165.65c14.1 0 24.89 9.91 24.89 22.91s-10.79 22.91-24.89 22.91-24.89-9.91-24.89-22.91c0-12.99 10.79-22.91 24.89-22.91zm-13.22 51.55h26.43c6.28 0 9.69 3.41 9.69 9.69v94.72c0 6.28-3.41 9.69-9.69 9.69h-26.43c-6.28 0-9.69-3.41-9.69-9.69v-94.72c0-6.28 3.42-9.69 9.69-9.69zm137.24 29.74c-.55 7.05-3.96 9.14-9.47 8.15-2.97-.55-6.06-.88-8.81-.88-6.61 0-13.22 3.63-13.22 16.08v51.32c0 6.28-3.42 9.69-9.69 9.69h-26.43c-6.28 0-9.69-3.41-9.69-9.69v-94.72c0-6.28 3.42-9.69 9.69-9.69h26.43c6.28 0 9.69 3.41 9.69 9.69v.66c7.6-9.14 17.07-12.56 26.87-13 4.74-.22 7.16 2.53 6.5 10.02zm40.53-81.29c14.1 0 24.89 9.91 24.89 22.91s-10.79 22.91-24.89 22.91-24.89-9.91-24.89-22.91c0-12.99 10.79-22.91 24.89-22.91zm-13.22 51.55h26.43c6.28 0 9.69 3.41 9.69 9.69v94.72c0 6.28-3.41 9.69-9.69 9.69h-26.43c-6.28 0-9.69-3.41-9.69-9.69v-94.72c0-6.28 3.41-9.69 9.69-9.69zm57.71 11.45c-3.19-6.72-.33-11.45 7.16-11.45h26.99c5.62 0 9.25 2.53 11.01 7.93l6.83 20.93 6.83-20.93c1.76-5.4 5.4-7.93 11.01-7.93h26.98c7.49 0 10.35 4.74 7.16 11.45l-21.37 44.5 23.9 46.7c3.42 6.72.44 11.45-7.05 11.45h-26.98c-5.51 0-9.03-2.42-11.12-7.6l-9.36-23.46-9.36 23.46c-2.09 5.18-5.62 7.6-11.12 7.6h-26.98c-7.49 0-10.46-4.74-7.05-11.45l23.9-46.7z" fill="#f8fdff"/></svg>